<svg width="28" height="28" viewBox="0 0 28 28" fill="none" xmlns="http://www.w3.org/2000/svg">
<path d="M18 8H10C8.89543 8 8 8.89543 8 10V18C8 19.1046 8.89543 20 10 20H18C19.1046 20 20 19.1046 20 18V10C20 8.89543 19.1046 8 18 8Z" stroke="#2563EB" stroke-width="1.8" stroke-linecap="round" stroke-linejoin="round"/>
<path d="M11 2V5" stroke="#2563EB" stroke-width="1.8" stroke-linecap="round" stroke-linejoin="round"/>
<path d="M14 2V5" stroke="#2563EB" stroke-width="1.8" stroke-linecap="round" stroke-linejoin="round"/>
<path d="M17 2V5" stroke="#2563EB" stroke-width="1.8" stroke-linecap="round" stroke-linejoin="round"/>
<path d="M11 23V26" stroke="#2563EB" stroke-width="1.8" stroke-linecap="round" stroke-linejoin="round"/>
<path d="M14 23V26" stroke="#2563EB" stroke-width="1.8" stroke-linecap="round" stroke-linejoin="round"/>
<path d="M17 23V26" stroke="#2563EB" stroke-width="1.8" stroke-linecap="round" stroke-linejoin="round"/>
<path d="M2 11H5" stroke="#2563EB" stroke-width="1.8" stroke-linecap="round" stroke-linejoin="round"/>
<path d="M2 14H5" stroke="#2563EB" stroke-width="1.8" stroke-linecap="round" stroke-linejoin="round"/>
<path d="M2 17H5" stroke="#2563EB" stroke-width="1.8" stroke-linecap="round" stroke-linejoin="round"/>
<path d="M23 11H26" stroke="#2563EB" stroke-width="1.8" stroke-linecap="round" stroke-linejoin="round"/>
<path d="M23 14H26" stroke="#2563EB" stroke-width="1.8" stroke-linecap="round" stroke-linejoin="round"/>
<path d="M23 17H26" stroke="#2563EB" stroke-width="1.8" stroke-linecap="round" stroke-linejoin="round"/>
</svg>
